<?xml version="1.0" standalone="no"?>
<!DOCTYPE svg PUBLIC "-//W3C//DTD SVG 20010904//EN"
 "http://www.w3.org/TR/2001/REC-SVG-20010904/DTD/svg10.dtd">
<svg version="1.0" xmlns="http://www.w3.org/2000/svg"
 width="1594.000000pt" height="1011.000000pt" viewBox="0 0 1594.000000 1011.000000"
 preserveAspectRatio="xMidYMid meet">

<g transform="translate(0.000000,1011.000000) scale(0.100000,-0.100000)"
fill="#0da144" stroke="none">
<path d="M13410 9320 c18 -6 8 -7 -34 -3 -40 4 -61 2 -66 -6 -4 -7 -21 -13
-38 -13 -17 -1 -29 -5 -26 -10 3 -4 -2 -8 -12 -8 -20 0 -135 -49 -149 -64 -5
-6 -29 -23 -52 -38 -41 -27 -170 -148 -157 -148 3 0 -3 -8 -14 -17 -11 -10
-32 -36 -46 -57 -14 -21 -26 -35 -26 -30 0 9 -21 -24 -36 -56 -4 -8 -16 -27
-26 -42 -11 -16 -16 -28 -11 -28 4 -1 -1 -9 -13 -18 -11 -10 -24 -29 -27 -44
-4 -15 -14 -33 -22 -42 -8 -8 -15 -17 -15 -21 0 -3 -11 -31 -25 -61 -14 -30
-25 -62 -25 -72 0 -10 -6 -26 -13 -37 -7 -11 -14 -36 -16 -55 -2 -19 -7 -43
-12 -52 -5 -9 -9 -28 -9 -43 0 -15 -4 -24 -10 -20 -5 3 -10 -3 -10 -13 0 -11
-11 -62 -24 -113 -23 -89 -34 -156 -35 -207 -1 -13 -5 -21 -10 -18 -5 3 -9
-49 -9 -119 -1 -78 3 -125 9 -125 6 0 8 -9 4 -19 -3 -11 -1 -22 5 -26 5 -3 10
-14 10 -25 0 -52 94 -174 162 -210 37 -20 59 -23 155 -24 l112 -1 34 33 c35
34 65 87 86 153 6 21 11 111 11 226 0 180 13 306 39 383 5 14 14 52 21 85 36
183 191 377 365 460 33 15 68 32 77 37 23 11 124 10 146 -1 9 -5 35 -17 57
-27 41 -19 175 -147 175 -166 0 -6 11 -26 25 -44 14 -18 25 -37 25 -42 0 -5 9
-17 20 -27 11 -10 20 -22 20 -27 0 -4 15 -29 33 -55 19 -27 40 -64 47 -83 7
-19 19 -42 27 -51 7 -8 13 -25 13 -37 0 -12 5 -22 11 -22 5 0 8 -4 4 -9 -3 -5
-1 -12 5 -16 6 -4 8 -11 4 -16 -3 -6 1 -18 9 -27 8 -9 13 -26 11 -36 -1 -11 2
-29 8 -40 6 -11 11 -35 10 -54 -1 -18 3 -30 8 -27 5 3 11 1 15 -5 3 -5 0 -10
-7 -10 -11 0 -11 -2 0 -9 8 -5 14 -31 15 -69 1 -33 5 -58 10 -55 4 2 7 -8 7
-24 1 -15 5 -107 11 -203 5 -96 7 -197 4 -225 -3 -27 -6 -268 -8 -535 -1 -267
-6 -491 -10 -498 -5 -7 -11 -79 -14 -160 -3 -81 -10 -153 -15 -159 -7 -9 -7
-13 1 -13 11 0 6 -93 -6 -113 -7 -11 -13 -133 -14 -266 -1 -57 -4 -99 -8 -93
-3 5 -5 -128 -3 -297 1 -169 -2 -343 -7 -386 -5 -44 -12 -118 -15 -165 -3 -47
-7 -98 -10 -115 -2 -16 -7 -63 -11 -103 -5 -40 -11 -68 -15 -62 -4 6 -10 -10
-14 -37 -21 -137 -27 -164 -35 -159 -4 3 -8 -14 -9 -37 -2 -47 -7 -68 -28
-114 -8 -17 -17 -53 -20 -79 -3 -26 -11 -65 -18 -85 -10 -28 -10 -41 -2 -50 8
-9 8 -10 -1 -5 -8 4 -15 -16 -24 -68 -7 -41 -16 -73 -21 -70 -7 5 -13 -66 -9
-109 1 -9 -1 -17 -6 -17 -9 0 -6 -304 3 -362 3 -21 9 -38 13 -38 4 0 7 -8 8
-17 3 -37 17 -78 29 -91 7 -7 11 -18 8 -25 -15 -40 77 -152 148 -182 47 -19
106 -19 149 0 44 19 54 28 115 100 79 95 95 123 156 280 16 41 21 87 26 255 4
113 5 264 2 335 -7 180 7 976 20 1110 53 578 58 670 65 1285 9 791 -19 1543
-65 1730 -5 19 -14 62 -20 95 -7 33 -16 71 -20 85 -4 14 -15 52 -25 85 -9 33
-21 69 -25 80 -4 11 -13 38 -19 60 -10 34 -36 103 -72 193 -5 12 -13 32 -18
45 -10 24 -70 147 -92 187 -68 124 -208 286 -304 351 -60 41 -133 79 -152 79
-7 0 -13 5 -13 10 0 6 -10 10 -23 10 -13 0 -28 5 -34 11 -21 21 -131 39 -263
44 -90 3 -127 2 -110 -5z m163 -7 c-7 -2 -19 -2 -25 0 -7 3 -2 5 12 5 14 0 19
-2 13 -5z"/>
<path d="M12533 7192 c-80 -60 -93 -79 -109 -161 -1 -8 -6 -17 -11 -20 -13
-10 -15 -82 -2 -97 6 -8 20 -14 30 -14 11 0 19 -4 19 -10 0 -5 6 -10 14 -10 8
0 16 -4 18 -8 4 -13 103 -82 116 -82 6 0 12 -3 14 -7 2 -5 23 -24 48 -44 90
-72 270 -258 270 -279 0 -5 7 -10 17 -10 9 0 14 -3 10 -6 -3 -3 18 -41 47 -83
30 -42 73 -113 96 -159 24 -45 47 -85 51 -88 5 -3 9 -14 9 -24 0 -11 8 -34 18
-52 10 -18 24 -52 31 -75 8 -23 18 -40 22 -37 5 3 6 -1 3 -9 -3 -8 -1 -18 5
-22 6 -3 11 -16 11 -28 0 -12 7 -30 15 -40 7 -11 12 -27 10 -38 -2 -10 0 -21
6 -24 5 -4 9 -17 9 -31 0 -14 7 -27 15 -30 8 -4 12 -10 9 -15 -3 -6 0 -16 6
-24 10 -12 10 -15 -1 -15 -10 -1 -8 -4 4 -11 9 -5 17 -15 17 -20 0 -6 -6 -7
-12 -3 -10 6 -10 4 0 -8 7 -9 14 -32 16 -53 1 -20 8 -40 15 -44 7 -5 11 -26
11 -52 -1 -24 2 -57 7 -74 5 -16 9 -42 8 -57 0 -15 2 -25 6 -22 4 2 10 -4 13
-13 4 -9 1 -20 -6 -25 -8 -5 -9 -8 -2 -8 11 0 32 -173 26 -210 -1 -8 -4 -118
-6 -244 -3 -166 -7 -230 -16 -236 -10 -6 -10 -8 0 -12 10 -3 10 -9 2 -23 -11
-21 -17 -57 -32 -170 -5 -38 -13 -71 -19 -73 -5 -2 -8 -9 -6 -15 6 -16 -29
-158 -38 -158 -4 1 -7 -1 -7 -4 -2 -25 -58 -154 -71 -165 -4 -3 -14 -21 -23
-40 -30 -62 -41 -80 -47 -80 -4 0 -28 -29 -53 -64 -25 -35 -52 -66 -61 -69 -8
-4 -15 -13 -15 -21 0 -8 -20 -27 -45 -43 -24 -15 -44 -34 -45 -40 0 -7 -6 -13
-14 -13 -8 0 -21 -6 -28 -13 -7 -7 -31 -21 -53 -31 -22 -10 -46 -23 -54 -29
-13 -11 -22 -13 -71 -19 -14 -2 -28 -7 -32 -13 -11 -16 -327 -14 -359 2 -15 7
-45 15 -68 19 -23 4 -44 11 -47 15 -3 5 -12 9 -21 9 -18 0 -42 28 -43 51 0 8
25 42 57 75 80 84 152 198 245 389 16 33 33 67 39 75 5 8 14 26 20 40 6 14 17
41 26 60 51 117 78 200 103 315 5 22 14 60 19 85 65 286 70 727 11 960 -57
230 -91 306 -207 476 -55 81 -157 173 -235 213 -35 17 -66 30 -69 29 -4 -2
-15 4 -25 13 -30 26 -133 44 -306 55 -101 7 -153 0 -143 -16 3 -6 1 -10 -4
-10 -6 0 -11 4 -11 9 0 6 -12 6 -32 0 -18 -5 -40 -6 -49 -4 -10 3 -20 1 -24
-5 -3 -5 -17 -10 -30 -10 -14 0 -42 -9 -64 -21 -22 -11 -45 -18 -51 -14 -5 3
-10 2 -10 -4 0 -5 -10 -13 -22 -17 -32 -10 -178 -105 -178 -115 0 -5 -5 -9
-10 -9 -6 0 -23 -14 -38 -31 -15 -17 -37 -40 -49 -52 -13 -11 -23 -26 -23 -33
0 -7 -6 -19 -12 -26 -7 -7 -14 -20 -16 -28 -6 -29 -31 -95 -32 -85 0 6 -8 -6
-17 -25 -9 -19 -16 -38 -15 -42 1 -4 -5 -22 -12 -40 -8 -18 -17 -62 -20 -97
-4 -35 -10 -69 -14 -75 -4 -6 -7 -25 -8 -42 -1 -17 -5 -37 -9 -44 -6 -9 -4
-11 5 -5 10 6 11 4 6 -11 -18 -42 -20 -57 -6 -49 10 6 11 2 6 -19 -5 -21 0
-37 24 -70 34 -47 53 -59 118 -74 64 -15 167 13 204 55 21 24 38 108 38 188 0
35 4 74 9 87 33 86 48 118 74 156 57 85 142 154 232 188 71 26 210 24 285 -5
30 -12 63 -24 73 -28 9 -3 17 -9 17 -14 0 -5 7 -9 15 -9 9 0 44 -28 78 -62 63
-63 102 -128 132 -223 9 -27 22 -53 28 -57 6 -4 12 -24 13 -46 0 -21 4 -44 8
-50 4 -6 9 -40 12 -74 2 -35 9 -101 15 -148 6 -47 8 -146 5 -220 -5 -132 -39
-375 -56 -395 -9 -11 -31 -98 -33 -132 -1 -11 -5 -19 -9 -17 -3 2 -11 -19 -18
-46 -7 -28 -19 -58 -28 -66 -8 -9 -15 -28 -16 -44 -1 -15 -3 -26 -5 -24 -2 2
-20 -29 -39 -69 -20 -39 -38 -74 -41 -77 -3 -3 -17 -27 -30 -55 -14 -27 -31
-56 -38 -63 -7 -7 -13 -20 -13 -28 0 -8 -4 -14 -10 -14 -5 0 -10 -5 -10 -10 0
-6 -4 -16 -10 -23 -5 -7 -22 -28 -38 -47 -37 -46 -67 -93 -64 -102 2 -10 -55
-20 -76 -14 -11 4 -24 16 -29 29 -6 12 -27 42 -47 67 -53 65 -58 71 -91 115
-16 22 -32 42 -35 45 -3 3 -23 30 -45 60 -22 30 -42 57 -46 60 -8 6 -259 380
-259 387 0 4 -65 102 -80 120 -5 7 -10 15 -10 19 0 6 -117 173 -160 229 -21
27 -199 205 -233 233 -15 12 -32 22 -37 22 -6 0 -10 5 -10 10 0 6 -5 10 -10
10 -6 0 -20 8 -31 19 -11 10 -37 27 -59 37 -22 10 -40 22 -40 27 0 4 -9 7 -19
7 -11 0 -23 5 -26 10 -3 6 -14 10 -24 10 -10 0 -24 7 -31 15 -7 8 -23 15 -36
15 -12 0 -26 5 -29 10 -3 6 -21 10 -39 10 -17 0 -36 4 -41 9 -22 20 -333 36
-368 18 -17 -8 -95 -25 -143 -31 -11 -1 -24 -5 -30 -8 -5 -3 -44 -24 -87 -47
-44 -23 -84 -46 -90 -52 -7 -5 -27 -20 -45 -33 -28 -20 -67 -62 -152 -164 -11
-13 -21 -31 -22 -40 -2 -9 -8 -21 -15 -27 -17 -14 -52 -106 -76 -200 -17 -65
-22 -116 -24 -272 -1 -114 2 -193 7 -193 5 0 6 -7 3 -17 -4 -11 -3 -14 5 -9
11 7 17 -19 14 -64 0 -8 5 -18 11 -22 9 -6 9 -8 0 -8 -11 0 -8 -14 17 -85 4
-11 13 -38 20 -60 6 -22 30 -78 52 -124 30 -62 43 -80 50 -70 7 10 8 8 3 -8
-4 -14 1 -33 13 -50 10 -15 35 -54 56 -85 21 -31 47 -67 58 -80 16 -19 19 -32
15 -75 -3 -29 -1 -55 4 -58 5 -4 5 -13 -1 -24 -5 -10 -7 -21 -3 -24 18 -19
-47 -117 -77 -117 -6 0 -9 -3 -7 -7 3 -5 -35 -8 -83 -8 -53 0 -88 4 -87 10 1
6 -15 11 -35 13 -21 2 -38 7 -38 13 0 5 -13 9 -30 9 -16 0 -30 4 -30 8 0 9
-70 42 -88 42 -7 0 -12 5 -12 10 0 6 -9 10 -20 10 -11 0 -20 5 -20 10 0 6 -9
10 -19 10 -11 0 -23 4 -26 10 -3 5 -23 17 -43 27 -20 9 -39 19 -42 22 -8 9
-43 30 -66 40 -20 9 -22 20 -27 98 -2 48 -10 171 -16 273 -7 102 -15 237 -19
300 -8 124 1 377 19 530 6 52 15 129 19 170 14 132 43 320 55 357 6 19 2 25
-26 36 -59 25 -104 37 -140 37 -19 0 -39 4 -44 9 -6 5 -30 12 -55 15 -25 3
-62 8 -82 12 -21 3 -48 4 -61 0 -24 -6 -28 -15 -30 -78 -1 -23 -4 -33 -9 -25
-4 6 -8 10 -8 7 -1 -3 -3 -23 -5 -44 -3 -22 -9 -63 -15 -92 -9 -44 -15 -53
-37 -59 -19 -4 -29 -2 -36 11 -27 48 -203 224 -224 224 -7 0 -13 5 -13 10 0 6
-6 10 -12 10 -7 0 -24 9 -38 20 -14 11 -33 20 -42 20 -10 0 -18 4 -18 8 0 11
-72 42 -98 42 -11 0 -23 4 -26 9 -3 5 -25 12 -48 15 -68 11 -419 8 -466 -4
-24 -6 -47 -8 -53 -5 -5 4 -9 0 -9 -7 0 -9 -12 -13 -35 -13 -19 1 -32 -2 -29
-7 3 -4 -9 -8 -25 -8 -17 0 -31 -4 -31 -9 0 -5 -16 -15 -35 -21 -37 -12 -121
-57 -142 -75 -6 -5 -28 -21 -48 -35 -41 -29 -185 -167 -185 -178 0 -4 -14 -21
-30 -39 -17 -18 -30 -35 -30 -39 0 -4 -14 -29 -31 -55 -17 -27 -32 -55 -33
-63 -1 -8 -8 -21 -15 -30 -7 -8 -10 -20 -6 -26 4 -6 1 -9 -6 -8 -7 2 -14 -1
-14 -7 -5 -38 -18 -85 -24 -85 -4 0 -8 -6 -9 -12 0 -7 -5 -31 -11 -52 -5 -22
-8 -43 -5 -48 3 -4 -2 -21 -11 -37 -20 -40 -36 -245 -31 -399 3 -67 7 -126 10
-131 4 -5 7 -27 8 -50 1 -22 5 -46 11 -53 6 -9 7 -8 3 5 -3 9 -1 17 4 17 4 0
8 -20 7 -45 -1 -29 3 -49 11 -54 8 -5 13 -11 13 -15 -2 -12 3 -36 12 -58 4
-10 9 -25 12 -34 3 -8 9 -13 14 -10 5 3 7 -2 4 -12 -2 -10 6 -33 19 -52 13
-19 32 -52 41 -73 11 -22 23 -35 29 -31 7 4 8 2 4 -5 -9 -13 23 -55 108 -143
52 -54 57 -63 40 -69 -13 -5 -14 -8 -4 -9 12 0 12 -3 -2 -11 -10 -5 -20 -10
-23 -9 -8 0 -42 -34 -39 -40 1 -3 -38 -5 -86 -5 -53 0 -88 4 -87 10 1 6 -11
11 -28 13 -16 2 -34 8 -39 13 -6 5 -17 9 -27 9 -9 0 -37 11 -63 25 -26 14 -54
25 -62 25 -7 0 -14 5 -14 10 0 6 -9 10 -20 10 -11 0 -20 3 -20 8 0 4 -38 27
-85 51 -96 49 -92 41 -99 181 -3 52 -11 190 -18 305 -26 471 -9 816 62 1200
18 99 19 123 4 136 -14 12 -69 26 -134 35 -19 3 -44 9 -55 14 -22 10 -95 20
-168 23 l-48 2 -19 -52 c-10 -29 -20 -74 -23 -100 -2 -27 -9 -61 -16 -76 -6
-16 -11 -34 -11 -41 0 -8 -10 -16 -22 -20 -18 -4 -28 2 -47 27 -39 51 -195
201 -227 217 -16 8 -31 17 -34 20 -15 16 -156 80 -175 80 -13 0 -26 4 -29 9
-3 5 -25 12 -48 16 -58 9 -338 9 -418 0 -36 -4 -75 -8 -88 -9 -12 -1 -20 -6
-18 -12 3 -7 -9 -10 -35 -9 -21 1 -36 -2 -33 -6 3 -5 -9 -9 -26 -9 -18 0 -29
-4 -25 -10 3 -5 -15 -15 -40 -21 -25 -6 -45 -14 -45 -18 0 -4 -15 -12 -34 -19
-18 -7 -46 -23 -61 -37 -16 -13 -33 -21 -38 -18 -6 3 -7 2 -4 -4 4 -5 -5 -16
-19 -24 -14 -7 -30 -21 -35 -31 -5 -10 -14 -18 -20 -18 -14 0 -114 -107 -154
-166 -44 -65 -125 -219 -125 -238 0 -9 -5 -16 -12 -16 -6 0 -8 -3 -5 -7 4 -3
2 -12 -3 -18 -6 -7 -14 -32 -19 -56 -6 -24 -18 -78 -27 -119 -14 -59 -18 -125
-18 -307 -1 -128 1 -233 5 -233 3 0 6 -21 8 -47 1 -26 7 -51 13 -54 6 -4 12
-22 13 -41 1 -18 4 -41 8 -50 4 -10 9 -25 12 -34 3 -8 8 -13 12 -11 5 3 9 -5
9 -16 2 -21 42 -116 53 -127 8 -7 29 -40 48 -77 9 -18 20 -33 25 -33 4 0 8 -5
8 -10 0 -12 44 -64 112 -133 69 -69 78 -85 71 -134 -3 -24 -10 -43 -15 -43 -5
0 -7 -4 -4 -9 3 -5 -11 -26 -30 -47 -33 -34 -43 -38 -95 -42 -60 -4 -97 5
-229 56 -36 14 -69 29 -74 34 -6 4 -18 8 -28 8 -10 0 -18 5 -18 10 0 6 -9 10
-19 10 -11 0 -23 4 -26 10 -3 5 -23 17 -43 27 -20 9 -39 19 -42 22 -3 4 -18
13 -35 21 -16 8 -44 25 -61 37 -17 13 -34 23 -38 23 -9 0 -120 74 -124 83 -2
4 -10 7 -18 7 -8 0 -14 5 -14 10 0 6 -5 10 -11 10 -13 0 -74 46 -113 85 -36
38 -116 159 -116 177 0 8 -4 18 -8 23 -11 13 -29 71 -37 118 -7 41 6 67 33 67
8 0 47 16 86 36 224 114 352 268 414 499 19 71 35 241 28 301 -16 145 -37 238
-56 249 -6 4 -10 13 -10 21 0 40 -148 214 -208 245 -15 8 -29 16 -32 19 -11
11 -51 30 -63 30 -7 0 -18 5 -25 12 -14 14 -80 38 -108 38 -11 0 -24 4 -30 9
-21 21 -327 29 -418 11 -26 -5 -52 -8 -56 -5 -5 3 -10 1 -12 -5 -2 -6 -17 -11
-35 -13 -17 -1 -29 -5 -26 -9 2 -5 -10 -8 -27 -8 -18 0 -29 -4 -25 -10 3 -5
-7 -12 -22 -16 -15 -4 -32 -10 -38 -15 -5 -4 -14 -8 -20 -9 -5 -1 -25 -8 -44
-16 -18 -8 -35 -14 -36 -14 -2 0 -34 -20 -71 -45 -36 -25 -71 -45 -76 -45 -5
0 -6 -4 -3 -10 3 -5 0 -10 -7 -10 -18 0 -119 -76 -111 -84 4 -3 1 -6 -5 -6 -7
0 -42 -25 -79 -55 -70 -57 -97 -66 -107 -39 -10 25 -7 754 4 929 5 88 11 242
13 343 l3 182 -77 0 c-70 0 -109 -12 -77 -23 7 -2 -41 -3 -107 -3 -127 0 -273
-8 -281 -17 -10 -10 0 -689 10 -706 3 -5 7 -112 8 -239 2 -127 6 -228 10 -226
4 3 7 -467 8 -1043 0 -576 4 -1051 8 -1055 5 -5 118 -7 253 -6 l244 3 5 320
c3 176 7 321 8 323 1 1 105 2 232 2 257 0 365 -12 392 -45 10 -11 22 -25 28
-32 5 -7 10 -14 10 -17 0 -3 22 -38 50 -78 49 -74 213 -247 280 -297 19 -14
44 -34 55 -44 11 -10 32 -26 48 -35 15 -9 27 -20 27 -24 0 -4 7 -8 15 -8 8 0
15 -5 15 -10 0 -6 16 -18 35 -27 19 -9 35 -20 35 -25 0 -4 9 -8 20 -8 11 0 20
-4 20 -10 0 -5 7 -10 15 -10 8 0 15 -4 15 -8 0 -8 153 -112 225 -153 107 -60
277 -139 299 -139 8 0 18 -4 21 -10 3 -5 19 -10 34 -10 15 0 31 -4 37 -9 24
-23 324 -40 387 -22 20 6 56 16 80 23 49 14 93 38 162 89 56 41 135 122 135
138 0 6 4 11 8 11 5 0 19 20 31 45 23 46 46 56 69 33 9 -9 61 -14 164 -17 148
-3 229 8 290 40 10 5 24 9 31 9 17 0 161 72 165 82 2 5 8 8 14 8 13 0 78 46
176 124 87 69 108 77 133 49 9 -10 40 -36 68 -58 29 -22 65 -50 79 -63 15 -12
63 -46 107 -75 44 -28 82 -54 85 -57 19 -20 312 -162 360 -175 14 -3 41 -11
60 -16 183 -51 356 -56 475 -12 90 33 169 80 233 139 48 45 73 62 87 58 52
-13 94 -24 144 -38 109 -32 354 -18 461 26 14 6 34 14 45 18 90 33 227 119
351 220 17 14 41 33 53 43 29 23 61 21 93 -6 49 -41 63 -52 103 -82 22 -17 49
-38 59 -47 11 -10 56 -42 100 -70 45 -29 83 -56 84 -60 2 -5 12 -8 23 -8 10 0
19 -3 19 -7 0 -5 10 -13 23 -19 12 -6 54 -27 92 -46 126 -65 235 -108 270
-108 12 0 25 -4 31 -8 16 -15 139 -32 232 -32 92 0 189 15 206 31 6 5 17 9 25
9 9 0 45 14 80 32 66 34 221 177 221 204 0 7 9 18 20 24 16 8 24 7 40 -8 12
-11 38 -28 60 -38 22 -10 40 -22 40 -26 0 -5 9 -8 20 -8 11 0 20 -4 20 -10 0
-5 8 -10 19 -10 10 0 24 -7 31 -15 7 -8 16 -15 21 -15 5 0 31 -9 57 -21 86
-38 201 -78 260 -90 23 -5 63 -14 90 -19 140 -31 238 -41 376 -41 81 0 156 2
165 5 9 3 39 7 66 11 28 3 64 10 80 15 17 5 50 14 75 20 88 23 176 64 255 118
44 31 87 63 95 72 30 33 65 50 102 50 21 0 38 -3 38 -7 0 -13 177 -98 275
-133 33 -12 69 -25 80 -30 45 -19 191 -40 279 -40 116 0 302 32 358 61 10 5
25 9 33 9 35 0 250 116 326 177 107 85 222 220 302 358 46 80 137 280 157 345
7 25 17 49 22 54 4 6 8 18 8 28 0 11 11 54 24 96 29 93 54 216 75 372 40 289
11 739 -66 1045 -8 33 -19 77 -24 98 -22 90 -71 254 -89 302 -4 11 -13 36 -20
55 -22 64 -118 263 -175 365 -81 145 -211 312 -349 450 -129 128 -154 150
-267 230 -52 36 -114 81 -139 100 -25 19 -54 35 -65 35 -11 -1 -48 -22 -82
-48z m-11146 -1379 c-3 -10 -5 -4 -5 12 0 17 2 24 5 18 2 -7 2 -21 0 -30z
m3775 -752 c13 -5 43 -15 68 -22 120 -34 293 -188 355 -315 15 -30 30 -52 33
-50 4 2 8 -10 9 -27 2 -18 9 -36 16 -42 8 -5 13 -21 12 -35 -2 -14 2 -30 7
-36 5 -7 10 -38 13 -70 2 -33 4 -63 4 -69 1 -5 6 -3 11 5 8 12 10 11 10 -7 0
-13 -4 -23 -10 -23 -5 0 -10 -18 -10 -40 0 -22 5 -40 10 -40 6 0 10 -5 10 -11
0 -5 -4 -7 -10 -4 -6 4 -11 -10 -11 -34 -1 -23 -2 -44 -3 -48 -1 -5 -6 -28
-10 -53 -5 -25 -13 -51 -19 -59 -12 -14 -18 -36 -18 -62 0 -9 -11 -27 -25 -40
-13 -12 -24 -28 -24 -34 0 -34 -164 -217 -218 -242 -18 -9 -30 -18 -27 -21 3
-3 -25 -19 -62 -36 -64 -28 -78 -30 -216 -34 -81 -2 -155 0 -165 4 -9 4 -28 9
-41 10 -13 2 -29 8 -35 14 -5 5 -16 10 -24 10 -23 0 -148 86 -197 136 -82 82
-185 241 -185 283 0 9 -4 21 -9 26 -5 6 -16 51 -26 100 -37 191 8 415 115 571
99 143 251 255 395 291 51 13 247 16 277 4z m2672 -2 c80 -22 175 -67 225
-107 59 -46 161 -160 161 -179 0 -7 4 -13 9 -13 5 0 12 -8 15 -17 11 -30 32
-63 38 -58 2 3 5 -1 5 -9 0 -26 35 -131 50 -147 8 -9 14 -36 14 -60 0 -24 3
-79 5 -122 4 -53 2 -83 -6 -93 -7 -8 -8 -14 -3 -14 7 0 7 -14 2 -37 -12 -62
-64 -210 -79 -228 -17 -20 -35 -51 -49 -82 -15 -32 -174 -190 -201 -198 -12
-4 -19 -9 -16 -13 9 -9 -127 -63 -147 -58 -9 2 -14 0 -11 -5 4 -6 -50 -9 -143
-6 -151 4 -215 12 -221 28 -2 5 -10 9 -19 9 -19 0 -147 83 -191 124 -86 80
-180 229 -209 331 -29 103 -33 129 -33 230 0 106 5 140 37 240 61 190 214 372
368 439 22 10 48 22 57 27 10 5 28 9 40 9 13 0 30 5 38 10 21 13 213 13 264
-1z m-5050 -20 c103 -27 124 -35 175 -67 30 -19 59 -39 66 -45 22 -24 60 -92
57 -106 -2 -7 1 -10 6 -7 36 22 21 -277 -15 -303 -5 -3 -14 -18 -22 -33 -7
-15 -28 -42 -46 -60 -18 -18 -31 -36 -28 -40 2 -5 0 -8 -4 -8 -5 0 -37 -20
-71 -45 -34 -25 -71 -45 -82 -45 -11 0 -20 -4 -20 -9 0 -6 -27 -18 -60 -27
-33 -9 -58 -19 -56 -23 3 -4 -11 -6 -29 -6 -19 1 -32 -2 -29 -7 3 -5 -9 -9
-28 -9 -18 0 -123 -1 -232 -2 -110 -2 -225 1 -255 5 -31 4 -85 10 -121 14 -36
4 -71 11 -77 17 -10 7 -13 57 -13 187 l0 178 59 59 c213 212 378 321 561 373
74 20 203 25 264 9z m7366 -29 c121 -15 169 -29 255 -73 44 -22 108 -67 113
-79 2 -5 8 -8 12 -8 12 0 88 -82 199 -215 28 -35 131 -183 131 -190 0 -3 11
-21 25 -39 14 -18 25 -38 25 -44 0 -7 4 -12 8 -12 5 0 15 -12 23 -27 7 -16 27
-47 44 -69 29 -41 77 -115 102 -159 7 -12 24 -34 38 -49 14 -15 25 -29 25 -31
0 -9 103 -150 112 -153 4 -2 8 -8 8 -14 0 -10 174 -263 196 -286 28 -28 -11
-84 -78 -113 -16 -6 -25 -16 -21 -23 3 -6 3 -8 -1 -5 -4 4 -31 -2 -59 -13 -96
-37 -156 -46 -312 -43 -160 3 -253 12 -271 26 -16 13 -112 33 -162 33 -24 0
-39 2 -33 4 20 7 0 22 -29 22 -16 0 -32 5 -35 10 -3 6 -14 10 -25 10 -40 0
-220 105 -335 195 -166 130 -349 370 -397 520 -46 142 -66 332 -48 454 17 118
53 192 128 264 33 31 63 57 67 57 4 0 20 9 36 21 57 40 114 46 259 29z"/>
</g>
</svg>
