<?xml version="1.0" standalone="no"?>
<!DOCTYPE svg PUBLIC "-//W3C//DTD SVG 20010904//EN"
 "http://www.w3.org/TR/2001/REC-SVG-20010904/DTD/svg10.dtd">
<svg version="1.0" xmlns="http://www.w3.org/2000/svg"
 width="1798.000000pt" height="319.000000pt" viewBox="0 0 1798.000000 319.000000"
 preserveAspectRatio="xMidYMid meet">

<g transform="translate(0.000000,319.000000) scale(0.100000,-0.100000)"
fill="#ffffff" stroke="none">
<path fill="#ffffff" d="M0 1595 l0 -1595 8990 0 8990 0 0 1595 0 1595 -8990 0 -8990 0 0
-1595z m4760 1335 c140 -18 271 -70 376 -151 135 -104 240 -255 287 -414 42
-141 45 -175 14 -175 -7 0 -85 -20 -173 -45 -87 -24 -175 -49 -194 -54 -19 -6
-71 -21 -115 -34 -50 -15 -84 -21 -92 -15 -6 5 -17 32 -24 61 -28 120 -92 170
-219 171 -119 0 -180 -46 -180 -137 0 -79 64 -123 270 -186 400 -123 622 -263
712 -451 48 -99 66 -164 78 -285 38 -402 -200 -759 -589 -880 -81 -25 -267
-47 -341 -40 -231 22 -293 37 -445 112 -109 54 -236 170 -302 278 -55 89 -130
306 -121 350 3 18 104 59 125 50 7 -2 13 -17 13 -32 0 -31 30 -141 51 -188 63
-142 169 -250 309 -317 134 -64 231 -83 415 -83 147 0 185 5 295 42 160 54
311 180 377 315 62 128 67 150 67 318 0 135 -3 163 -22 215 -31 85 -83 158
-150 210 -70 56 -245 143 -367 183 -49 16 -137 45 -195 63 -157 51 -239 104
-288 189 -24 40 -27 56 -27 135 0 108 23 164 96 229 143 129 406 88 518 -80
16 -25 31 -50 33 -56 2 -6 12 -6 28 1 14 5 50 16 80 25 62 17 199 56 217 61
25 8 -44 146 -116 233 -57 69 -190 161 -266 185 -27 9 -66 21 -85 27 -66 22
-237 24 -335 5 -49 -10 -94 -21 -100 -25 -5 -4 -22 -10 -37 -14 -43 -10 -149
-76 -202 -125 -83 -78 -136 -170 -172 -296 -25 -87 -23 -306 4 -395 30 -101
61 -158 121 -223 98 -105 215 -167 446 -232 282 -80 362 -120 420 -212 27 -43
29 -55 29 -132 0 -95 -17 -139 -75 -206 -97 -110 -334 -138 -504 -60 -68 31
-152 115 -187 185 -29 61 -53 169 -40 182 5 5 32 18 61 28 l51 20 9 -22 c5
-13 16 -48 25 -78 8 -31 27 -71 41 -90 57 -77 171 -118 295 -106 118 12 180
62 180 143 0 83 -65 118 -365 198 -229 61 -432 182 -526 314 -104 145 -143
282 -143 501 0 173 16 252 80 385 149 314 479 473 874 425z m5795 0 c81 -9
244 -52 270 -70 6 -4 21 -11 35 -15 44 -14 194 -112 260 -171 72 -64 160 -166
209 -243 30 -46 32 -53 18 -64 -97 -76 -526 -397 -530 -397 -4 0 -7 4 -7 10 0
19 -72 105 -118 142 -74 60 -160 88 -268 88 -139 0 -244 -45 -329 -142 -90
-102 -136 -234 -142 -408 -9 -229 39 -381 158 -505 129 -135 305 -169 485 -94
78 33 164 107 199 172 11 20 23 37 28 37 5 0 27 -16 50 -35 22 -19 44 -35 48
-35 44 0 -57 -144 -153 -218 -97 -74 -235 -122 -353 -122 -60 0 -161 21 -221
46 -53 22 -154 95 -192 138 -57 65 -142 212 -142 246 0 5 -4 18 -9 28 -62 124
-62 480 0 604 5 10 9 24 9 31 0 17 54 119 90 171 100 143 223 219 396 246 69
10 93 10 170 -5 109 -20 212 -68 278 -130 26 -25 52 -45 58 -45 7 0 269 192
302 221 5 4 -23 41 -64 83 -252 260 -618 351 -964 238 -241 -78 -454 -274
-572 -527 -67 -145 -100 -275 -115 -457 -33 -387 74 -743 295 -985 119 -130
259 -217 431 -269 80 -24 107 -27 245 -28 185 -1 268 15 410 82 140 65 296
203 386 340 l42 63 53 -42 c30 -23 56 -43 58 -45 12 -10 -144 -214 -207 -273
-75 -68 -192 -149 -268 -185 -156 -74 -196 -85 -381 -106 -128 -14 -330 13
-448 60 -354 140 -596 428 -713 845 -36 127 -46 223 -46 420 1 217 17 333 71
495 63 189 160 354 283 484 146 154 287 237 515 306 89 26 256 35 390 20z
m3653 -59 c5 -89 1 -95 -70 -109 -280 -57 -532 -263 -661 -542 -106 -228 -142
-456 -119 -739 7 -81 17 -161 22 -177 79 -252 97 -293 176 -417 54 -83 178
-210 259 -264 102 -68 185 -103 340 -144 66 -18 283 -18 360 0 154 35 269 85
375 164 82 62 97 76 160 152 153 187 229 375 269 670 32 230 -15 533 -115 743
-105 220 -270 394 -464 486 -30 14 -69 30 -87 35 l-33 9 0 -216 1 -217 51 -35
c134 -91 235 -276 272 -498 20 -116 20 -178 0 -294 -72 -427 -353 -661 -720
-598 -88 15 -212 82 -276 147 -68 70 -68 70 -98 118 -78 123 -113 241 -126
415 -25 357 141 676 406 780 29 12 59 19 67 16 13 -6 19 -109 7 -139 -3 -9
-29 -28 -59 -42 -140 -71 -236 -218 -270 -414 -19 -109 -19 -175 0 -276 34
-181 114 -316 230 -391 129 -82 306 -86 452 -11 76 40 185 180 214 276 39 135
42 151 42 266 -1 122 -10 175 -52 286 -42 110 -134 216 -235 269 l-47 25 0
360 0 360 52 -1 c28 -1 61 -6 73 -12 11 -5 48 -18 81 -28 67 -20 135 -52 210
-98 55 -33 179 -132 210 -168 142 -161 240 -335 292 -513 44 -154 73 -342 73
-480 0 -63 -22 -273 -34 -335 -3 -14 -8 -38 -11 -55 -4 -16 -10 -39 -14 -50
-5 -11 -16 -47 -27 -80 -91 -299 -330 -580 -597 -704 -38 -17 -92 -38 -120
-47 -29 -8 -65 -19 -82 -24 -107 -33 -403 -30 -519 6 -102 31 -161 54 -209 80
-15 9 -38 21 -50 27 -101 53 -274 216 -355 334 -23 35 -42 65 -42 68 0 3 -10
22 -23 43 -56 91 -113 253 -154 437 -25 114 -25 473 0 595 90 438 309 752 637
915 115 57 241 96 300 92 l35 -2 3 -54z m-12494 13 c3 -9 6 -549 6 -1200 l0
-1184 185 0 185 0 2 1197 c3 1110 4 1198 20 1201 11 2 29 -19 59 -70 74 -127
170 -290 219 -373 26 -44 107 -183 180 -310 73 -126 163 -279 199 -340 l66
-110 5 600 5 600 320 0 320 0 3 -1277 2 -1278 -278 0 -278 0 -86 148 c-47 81
-127 219 -178 307 -171 297 -226 392 -371 640 l-64 110 -3 -603 -2 -602 -325
0 -325 0 0 1280 0 1280 64 0 c49 0 65 -4 70 -16z m5076 -6 c331 -90 525 -264
623 -558 44 -135 52 -187 52 -360 0 -161 -7 -219 -42 -330 -14 -48 -17 -55
-59 -143 -76 -163 -250 -311 -445 -380 -110 -39 -176 -49 -366 -54 l-173 -5 0
-354 0 -354 -327 2 -328 3 0 430 0 430 495 6 c520 6 548 8 680 56 148 55 286
175 345 302 42 88 43 92 61 166 22 87 25 342 5 425 -64 277 -201 438 -452 532
l-84 32 -455 4 -455 3 3 -501 2 -500 183 2 182 3 3 303 2 304 223 -4 c204 -3
226 -5 271 -26 144 -65 216 -185 216 -357 0 -202 -97 -331 -282 -374 -50 -12
-903 -16 -932 -5 -14 6 -16 72 -16 649 0 354 3 651 6 660 6 15 47 16 508 12
401 -4 512 -7 556 -19z m2295 -338 l0 -355 -388 -3 -388 -2 3 -103 3 -102 338
-3 337 -2 0 -340 0 -340 -340 0 -340 0 0 -120 0 -120 398 -2 397 -3 3 -352 2
-353 -725 0 -725 0 2 553 3 552 593 3 592 2 0 180 0 180 -592 2 -593 3 -3 530
c-1 292 0 536 3 543 3 10 151 12 712 10 l708 -3 0 -355z m4033 -2 l2 -358
-242 -2 -243 -3 -2 -910 c-2 -500 -5 -915 -8 -922 -5 -15 -102 -18 -123 -5
-10 7 -12 214 -10 1003 l3 994 243 3 242 2 0 195 0 195 -670 0 -670 0 0 -195
0 -195 243 -2 242 -3 3 -994 c2 -789 0 -996 -10 -1003 -21 -13 -114 -9 -127 5
-8 10 -11 271 -11 923 l0 909 -240 3 -240 2 0 354 c0 194 3 356 7 359 3 4 367
6 807 5 l801 -3 3 -357z m3647 343 c22 -7 68 -22 103 -32 245 -75 411 -242
511 -514 48 -132 61 -422 27 -565 -37 -151 -123 -302 -227 -400 l-48 -45 45
-95 c26 -52 59 -122 74 -155 15 -33 51 -109 80 -170 64 -136 111 -234 184
-390 31 -66 61 -128 66 -137 6 -10 10 -22 10 -28 0 -16 -685 -14 -698 3 -5 6
-21 39 -35 72 -31 75 -129 300 -162 372 -14 29 -36 80 -50 113 -14 33 -36 83
-49 112 -13 29 -29 68 -37 86 l-14 32 -102 0 -103 0 0 -400 0 -400 -325 2
-326 3 0 475 0 475 472 0 471 0 60 -135 c33 -74 68 -153 78 -175 10 -22 30
-69 45 -105 15 -36 43 -98 61 -138 19 -41 34 -75 34 -77 0 -2 13 -32 29 -67
15 -35 31 -71 34 -80 6 -16 24 -18 198 -18 105 0 189 3 187 8 -2 4 -16 34 -32
67 -99 209 -142 299 -173 365 -20 41 -62 131 -95 200 -85 177 -108 227 -108
239 0 5 29 31 65 56 78 56 158 142 191 207 13 26 36 82 50 125 23 70 26 94 26
223 1 148 -8 205 -52 329 -48 135 -159 261 -291 329 -75 40 -106 50 -204 72
-22 5 -235 9 -472 10 l-433 0 0 -470 0 -470 180 0 180 0 2 273 3 272 235 0
c204 0 240 -3 275 -18 139 -62 205 -167 205 -326 0 -126 -21 -183 -95 -257
-96 -97 -82 -95 -648 -92 l-477 3 0 618 c0 340 2 623 6 628 10 16 1016 6 1069
-10z m-15977 -233 c9 -9 12 -264 12 -1085 l0 -1073 165 0 165 0 2 1083 3 1082
57 3 c53 3 58 1 63 -20 3 -13 4 -534 3 -1158 l-3 -1135 -292 -3 -293 -2 0
1153 c0 635 3 1157 7 1160 11 12 98 8 111 -5z"/>
<path fill="#ffffff" d="M2980 1955 c0 -426 -4 -775 -8 -775 -5 0 -30 37 -57 82 -46 80 -147
251 -172 293 -7 11 -15 27 -20 35 -4 8 -25 47 -48 85 -42 71 -158 268 -185
316 -42 74 -108 186 -130 223 -14 23 -47 81 -75 130 l-50 88 -3 -295 -2 -296
69 -118 c126 -216 284 -488 304 -523 30 -54 126 -218 167 -285 20 -33 43 -73
52 -90 8 -16 53 -95 100 -175 l85 -145 172 -3 171 -2 0 1115 0 1115 -185 0
-185 0 0 -775z"/>
<path fill="#ffffff" d="M6380 1955 l0 -225 110 0 c184 0 256 27 297 110 45 91 22 241 -44
288 -61 43 -100 52 -234 52 l-129 0 0 -225z"/>
<path fill="#ffffff" d="M5870 775 l0 -275 183 2 182 3 0 270 0 270 -182 3 -183 2 0 -275z"/>
<path fill="#ffffff" d="M7802 2353 l3 -378 180 0 180 0 5 180 5 180 383 5 384 5 1 192 2 193
-573 0 -572 0 2 -377z"/>
<path fill="#ffffff" d="M7800 895 l0 -395 585 0 585 0 0 195 0 195 -397 2 -398 3 -3 198 -2
197 -185 0 -185 0 0 -395z"/>
<path fill="#ffffff" d="M16340 1985 l0 -195 128 1 c159 0 221 17 265 71 51 63 51 188 0 249
-47 56 -96 69 -254 69 l-139 0 0 -195z"/>
<path fill="#ffffff" d="M15830 820 l0 -320 180 0 180 0 0 320 0 320 -180 0 -180 0 0 -320z"/>
</g>
</svg>
